<?xml version="1.0" encoding="utf-8"?>
<!-- Generator: Adobe Illustrator 15.1.0, SVG Export Plug-In . SVG Version: 6.00 Build 0)  -->
<!DOCTYPE svg PUBLIC "-//W3C//DTD SVG 1.0//EN" "http://www.w3.org/TR/2001/REC-SVG-20010904/DTD/svg10.dtd">
<svg version="1.0" id="Layer_1" xmlns="http://www.w3.org/2000/svg" xmlns:xlink="http://www.w3.org/1999/xlink" x="0px" y="0px"
	 width="283.46px" height="283.46px" viewBox="0 0 283.46 283.46" enable-background="new 0 0 283.46 283.46" xml:space="preserve">
<g id="Layer_3">
</g>
<g id="Layer_4">
	<g>
		<path d="M275.262,82.136L208.456,8.185c-0.634-0.701-1.533-1.101-2.477-1.101h-13.034H10.423c-1.844,0-3.339,1.495-3.339,3.339
			v262.615c0,1.843,1.495,3.337,3.339,3.337h262.613c1.846,0,3.338-1.494,3.338-3.337V107.745V84.601
			C276.375,83.626,275.944,82.747,275.262,82.136z M268.784,94.395H204.82c-1.691,0-3.062-1.371-3.062-3.062v-71.45l6.123,6.776
			l55.66,61.614l5.242,5.802V94.395z"/>
	</g>
</g>
</svg>
